<?xml version="1.0" encoding="UTF-8" standalone="no"?><!DOCTYPE svg PUBLIC "-//W3C//DTD SVG 1.1//EN" "http://www.w3.org/Graphics/SVG/1.1/DTD/svg11.dtd"><svg width="100%" height="100%" viewBox="0 0 128 128" version="1.1" xmlns="http://www.w3.org/2000/svg" xmlns:xlink="http://www.w3.org/1999/xlink" xml:space="preserve" xmlns:serif="http://www.serif.com/" style="fill-rule:evenodd;clip-rule:evenodd;stroke-linejoin:round;stroke-miterlimit:2;"><rect x="0" y="0" width="128" height="128" style="fill:url(#_Linear1);"/><path d="M58.721,27.853c2.311,-2.432 3.804,-3.853 3.804,-3.853c0.527,1.746 1.122,3.413 1.787,4.999c3.91,9.371 9.983,16.132 15.396,22.152c6.308,7.021 11.711,13.036 11.711,21.006c0,15.85 -13.043,28.894 -28.894,28.894c-15.85,-0 -28.894,-13.044 -28.894,-28.894c0,-16.046 17.24,-36.036 25.09,-44.304m1.989,4.916c-3.094,3.346 -6.033,6.831 -8.808,10.446c-3.496,4.574 -6.915,9.669 -9.439,14.784c-2.552,5.167 -4.016,10.007 -4.016,14.158c0,-0 12.039,7.223 24.078,2.408c12.04,-4.816 24.079,-2.408 24.079,-2.408c-0,-5.784 -3.834,-10.388 -10.503,-17.818l-0.145,-0.154c-5.003,-5.577 -11.023,-12.271 -15.246,-21.42l-0,0.004Z" style="fill:#fff;"/><path d="M45.926,61.447c3.949,-7.903 8.268,-13.258 10.079,-15.073l3.409,3.409c-1.396,1.397 -5.432,6.313 -9.183,13.821l-4.305,-2.157Z" style="fill:#fff;"/><defs><linearGradient id="_Linear1" x1="0" y1="0" x2="1" y2="0" gradientUnits="userSpaceOnUse" gradientTransform="matrix(100,-69,69,100,12,96)"><stop offset="0" style="stop-color:#af40ff;stop-opacity:1"/><stop offset="1" style="stop-color:#4f46e5;stop-opacity:1"/></linearGradient></defs></svg>